<?xml version="1.0" encoding="iso-8859-1"?>
<!-- Generator: Adobe Illustrator 19.0.0, SVG Export Plug-In . SVG Version: 6.00 Build 0)  -->
<svg version="1.1" id="Layer_1" xmlns="http://www.w3.org/2000/svg" xmlns:xlink="http://www.w3.org/1999/xlink" x="0px" y="0px"
	 viewBox="0 0 122 36" style="enable-background:new 0 0 122 36;" xml:space="preserve">
<g id="XMLID_2_">
	<g id="XMLID_49_">
		<defs>
			<path id="XMLID_50_" d="M61.742,35.477L61.742,35.477l3.959,0c0.686,0,1.299-0.426,1.539-1.068l1.736-4.667l-0.183,0.49
				c-0.26,0.702-1.251,0.708-1.52,0.01l-1.872-4.85l-0.036-0.044L61.742,35.477z"/>
		</defs>
		<clipPath id="XMLID_85_">
			<use xlink:href="#XMLID_50_"  style="overflow:visible;"/>
		</clipPath>
		
			<linearGradient id="XMLID_86_" gradientUnits="userSpaceOnUse" x1="-77.6619" y1="59.8265" x2="-77.2259" y2="59.8265" gradientTransform="matrix(-19.251 7.6173 -7.6173 -19.251 -970.9315 1772.494)">
			<stop  offset="0" style="stop-color:#50B848"/>
			<stop  offset="0.2924" style="stop-color:#50B848"/>
			<stop  offset="0.6689" style="stop-color:#80C440"/>
			<stop  offset="1" style="stop-color:#A6CE39"/>
		</linearGradient>
		<polygon id="XMLID_51_" style="clip-path:url(#XMLID_85_);fill:url(#XMLID_86_);" points="67.997,22.873 58.277,26.72 
			62.721,37.953 72.442,34.106 		"/>
	</g>
	<g id="XMLID_46_">
		<defs>
			<path id="XMLID_47_" d="M75.946,2.16c-1.386,0-2.622,0.869-3.091,2.173l-4.876,13.709l2.672,7.226L79.187,2.16H75.946z"/>
		</defs>
		<clipPath id="XMLID_87_">
			<use xlink:href="#XMLID_47_"  style="overflow:visible;"/>
		</clipPath>
		
			<linearGradient id="XMLID_88_" gradientUnits="userSpaceOnUse" x1="-78.3318" y1="58.9944" x2="-77.8958" y2="58.9944" gradientTransform="matrix(34.7609 -12.3458 12.3458 34.7609 2062.0449 -3001.8931)">
			<stop  offset="0" style="stop-color:#F78D1E"/>
			<stop  offset="0.3424" style="stop-color:#F9AC15"/>
			<stop  offset="1" style="stop-color:#FFF200"/>
		</linearGradient>
		<polygon id="XMLID_48_" style="clip-path:url(#XMLID_87_);fill:url(#XMLID_88_);" points="69.235,28.803 86.476,22.68 
			77.932,-1.375 60.691,4.748 		"/>
	</g>
	<g id="XMLID_43_">
		<defs>
			<path id="XMLID_44_" d="M60.206,11.894l7.067,18.348c0.269,0.698,1.26,0.692,1.52-0.01l2.625-7.04
				c-0.262,0.709-1.267,0.708-1.526-0.003l-3.75-10.227c-0.24-0.642-0.854-1.067-1.539-1.067H60.206z"/>
		</defs>
		<clipPath id="XMLID_89_">
			<use xlink:href="#XMLID_44_"  style="overflow:visible;"/>
		</clipPath>
		
			<linearGradient id="XMLID_90_" gradientUnits="userSpaceOnUse" x1="-78.0645" y1="58.8727" x2="-77.6285" y2="58.8727" gradientTransform="matrix(25.6452 0 0 25.6452 2061.7793 -1488.3837)">
			<stop  offset="0" style="stop-color:#97268F"/>
			<stop  offset="0.3475" style="stop-color:#B04B9F"/>
			<stop  offset="0.7769" style="stop-color:#CB73B0"/>
			<stop  offset="1" style="stop-color:#D582B6"/>
		</linearGradient>
		
			<rect id="XMLID_45_" x="60.206" y="11.894" style="clip-path:url(#XMLID_89_);fill:url(#XMLID_90_);" width="11.212" height="19.047"/>
	</g>
	<path id="XMLID_40_" style="fill:#FFFFFF;" d="M33.97,19.694v0.576c0,0.192-0.01,0.374-0.029,0.546H23.557
		c0.038,0.403,0.158,0.768,0.36,1.093c0.201,0.326,0.46,0.609,0.776,0.849c0.317,0.239,0.671,0.426,1.064,0.56
		c0.393,0.135,0.8,0.202,1.222,0.202c0.748,0,1.381-0.14,1.899-0.417c0.06-0.032,0.119-0.065,0.176-0.1
		c0.75-0.45,1.977-0.418,2.716,0.048l1.653,1.044c-0.672,0.977-1.559,1.731-2.66,2.258c-1.103,0.527-2.383,0.792-3.841,0.792
		c-1.074,0-2.09-0.169-3.048-0.504c-0.959-0.335-1.798-0.824-2.517-1.467c-0.719-0.643-1.285-1.434-1.697-2.373
		c-0.412-0.939-0.618-2.013-0.618-3.222c0-1.169,0.201-2.229,0.604-3.178c0.403-0.949,0.949-1.754,1.639-2.416
		c0.691-0.661,1.505-1.174,2.445-1.539c0.939-0.364,1.956-0.546,3.049-0.546c1.054,0,2.023,0.177,2.905,0.532
		c0.882,0.355,1.64,0.868,2.273,1.539c0.633,0.671,1.126,1.486,1.481,2.445C33.792,17.374,33.97,18.467,33.97,19.694 M29.627,17.882
		c0-0.748-0.235-1.39-0.705-1.928c-0.47-0.536-1.175-0.805-2.114-0.805c-0.46,0-0.882,0.072-1.266,0.216
		c-0.383,0.144-0.719,0.341-1.006,0.589c-0.288,0.25-0.518,0.542-0.691,0.878c-0.173,0.336-0.269,0.686-0.288,1.05H29.627z"/>
	<path id="XMLID_39_" style="fill:#FFFFFF;" d="M50.196,6.825c0,0.376-0.074,0.727-0.223,1.053
		c-0.148,0.327-0.346,0.609-0.593,0.846c-0.247,0.238-0.545,0.426-0.89,0.564c-0.347,0.139-0.708,0.208-1.083,0.208
		c-0.791,0-1.454-0.262-1.989-0.787c-0.534-0.524-0.801-1.152-0.801-1.884c0-0.356,0.069-0.698,0.208-1.024
		c0.138-0.326,0.336-0.608,0.593-0.845c0.257-0.238,0.554-0.43,0.89-0.579c0.336-0.148,0.702-0.222,1.098-0.222
		c0.375,0,0.736,0.069,1.083,0.208c0.346,0.138,0.643,0.326,0.89,0.564c0.247,0.237,0.445,0.519,0.593,0.845
		C50.122,6.098,50.196,6.45,50.196,6.825"/>
	<path id="XMLID_38_" style="fill:#FFFFFF;" d="M44.973,27.153V11.874h4.867v13.637c0,0.907-0.736,1.642-1.642,1.642H44.973z"/>
	<path id="XMLID_37_" style="fill:#FFFFFF;" d="M59.506,11.874h-1.442v-0.984c0-0.337,0.029-0.673,0.089-1.009
		c0.059-0.337,0.168-0.638,0.326-0.906c0.158-0.267,0.376-0.479,0.653-0.638c0.277-0.158,0.642-0.238,1.098-0.238
		c0.824,0.005,1.499-0.665,1.499-1.49v-2.16c-0.337-0.099-0.545-0.173-0.95-0.223c-0.405-0.049-0.817-0.074-1.232-0.074
		c-1.227,0-2.251,0.183-3.072,0.549c-0.821,0.366-1.474,0.86-1.958,1.483c-0.485,0.623-0.826,1.346-1.024,2.167
		c-0.198,0.821-0.296,1.687-0.296,2.597v0.924h-2.701v4.114h2.701v11.165h3.225c0.907,0,1.642-0.735,1.642-1.642v-9.523h3.041
		L59.506,11.874z"/>
	<path id="XMLID_36_" style="fill:#FFFFFF;" d="M90.048,14.839h-5.619v3.894h1.978c1.012,0,1.832,0.821,1.832,1.832v1.809
		c-0.433,0.188-0.903,0.324-1.411,0.409c-0.508,0.085-1.045,0.127-1.609,0.127c-0.979,0-1.849-0.155-2.611-0.466
		c-0.762-0.31-1.402-0.743-1.919-1.298c-0.518-0.555-0.908-1.218-1.171-1.989c-0.264-0.771-0.395-1.618-0.395-2.54
		c0-0.903,0.146-1.736,0.437-2.497c0.292-0.762,0.701-1.421,1.228-1.976c0.526-0.555,1.148-0.988,1.863-1.298
		c0.715-0.31,1.495-0.466,2.343-0.466c0.978,0,1.853,0.174,2.625,0.522c0.292,0.132,0.563,0.278,0.812,0.439
		c0.679,0.437,1.577,0.303,2.109-0.304l1.989-2.265c-0.846-0.809-1.947-1.453-3.301-1.933c-1.355-0.48-2.823-0.719-4.403-0.719
		c-1.524,0-2.944,0.245-4.261,0.734c-1.114,0.414-2.105,0.981-2.977,1.697l-3.523,9.441c0.114,1.048,0.36,2.026,0.743,2.93
		c0.545,1.289,1.302,2.394,2.272,3.316c0.968,0.922,2.125,1.637,3.471,2.145c1.345,0.508,2.817,0.762,4.417,0.762
		c1.542,0,2.967-0.16,4.275-0.48c0.603-0.147,1.17-0.314,1.703-0.502c1.041-0.366,1.727-1.362,1.727-2.466V17.46
		C92.67,16.012,91.496,14.839,90.048,14.839"/>
	<path id="XMLID_33_" style="fill:#FFFFFF;" d="M94.024,14.315c0.852-0.814,1.844-1.424,2.977-1.83
		c1.133-0.407,2.29-0.61,3.472-0.61c1.22,0,2.251,0.15,3.094,0.45c0.842,0.3,1.525,0.765,2.048,1.394
		c0.523,0.63,0.905,1.424,1.147,2.382c0.242,0.959,0.364,2.097,0.364,3.413v7.639h-4.358v-0.079c0-0.668-0.748-1.055-1.3-0.678
		c-0.157,0.107-0.312,0.2-0.458,0.264c-0.746,0.329-1.554,0.494-2.426,0.494c-0.581,0-1.182-0.078-1.801-0.232
		c-0.62-0.155-1.187-0.406-1.699-0.756c-0.513-0.349-0.935-0.813-1.264-1.394c-0.33-0.581-0.494-1.297-0.494-2.149
		c0-1.046,0.286-1.889,0.857-2.527c0.571-0.639,1.307-1.133,2.207-1.481c0.901-0.348,1.903-0.581,3.007-0.697
		c1.104-0.116,2.179-0.174,3.225-0.174V17.51c0-0.716-0.252-1.244-0.755-1.583c-0.504-0.339-1.124-0.508-1.859-0.508
		c-0.678,0-1.332,0.145-1.961,0.436c-0.193,0.089-0.378,0.184-0.554,0.284c-0.672,0.382-1.511,0.277-2.038-0.289L94.024,14.315z
		 M102.768,20.502h-0.61c-0.523,0-1.05,0.025-1.583,0.073c-0.533,0.049-1.007,0.141-1.423,0.276
		c-0.416,0.136-0.76,0.334-1.031,0.596c-0.271,0.261-0.407,0.605-0.407,1.031c0,0.271,0.063,0.504,0.189,0.697
		c0.126,0.194,0.286,0.349,0.48,0.465c0.193,0.116,0.416,0.198,0.668,0.247c0.252,0.049,0.494,0.072,0.727,0.072
		c0.968,0,1.709-0.266,2.222-0.799c0.513-0.532,0.77-1.254,0.77-2.164V20.502z"/>
	<path id="XMLID_32_" style="fill:#FFFFFF;" d="M118.267,15.369c-0.558,0.576-1.604,0.764-2.313,0.388
		c-0.006-0.003-0.013-0.007-0.019-0.01c-0.373-0.197-0.776-0.343-1.192-0.414c-0.695-0.119-1.318-0.051-1.867,0.203
		c-0.374,0.173-0.562,0.471-0.562,0.894c0,0.404,0.206,0.692,0.62,0.865c0.413,0.173,1.082,0.365,2.004,0.576
		c0.538,0.116,1.081,0.279,1.629,0.49c0.548,0.212,1.042,0.49,1.485,0.836c0.442,0.346,0.797,0.769,1.066,1.268
		c0.269,0.501,0.404,1.096,0.404,1.788c0,0.903-0.183,1.667-0.548,2.292c-0.365,0.624-0.841,1.129-1.427,1.514
		c-0.587,0.385-1.245,0.663-1.975,0.836c-0.73,0.173-1.461,0.26-2.191,0.26c-1.172,0-2.32-0.188-3.444-0.562
		c-1.125-0.375-2.062-0.927-2.811-1.658l1.091-1.151c0.802-0.846,2.058-1.026,3.099-0.502c0.006,0.003,0.012,0.006,0.018,0.009
		c0.615,0.308,1.269,0.462,1.961,0.462c0.384,0,0.764-0.092,1.139-0.274c0.375-0.183,0.562-0.505,0.562-0.966
		c0-0.442-0.231-0.769-0.692-0.981c-0.461-0.211-1.182-0.433-2.162-0.663c-0.5-0.116-1-0.269-1.499-0.462
		c-0.5-0.192-0.947-0.451-1.34-0.778c-0.395-0.327-0.717-0.73-0.966-1.211c-0.25-0.48-0.375-1.056-0.375-1.73
		c0-0.865,0.183-1.6,0.548-2.206c0.365-0.605,0.836-1.1,1.412-1.485c0.577-0.385,1.216-0.668,1.918-0.85
		c0.701-0.183,1.398-0.274,2.09-0.274c1.076,0,2.129,0.168,3.157,0.504c1.028,0.337,1.898,0.841,2.609,1.514L118.267,15.369z"/>
	<path id="XMLID_15_" style="fill:#FFFFFF;" d="M74.337,30.484c-0.3-0.213-0.642-0.366-1.026-0.458
		c-0.384-0.092-0.774-0.138-1.168-0.138h-2.021v4.72c0,0.48,0.39,0.87,0.87,0.87h1.214c0.384,0,0.763-0.054,1.137-0.162
		c0.374-0.108,0.709-0.276,1.006-0.505c0.297-0.229,0.537-0.521,0.719-0.876c0.182-0.355,0.272-0.777,0.272-1.267
		c0-0.526-0.092-0.968-0.276-1.326C74.879,30.983,74.637,30.697,74.337,30.484 M73.78,33.449c-0.102,0.211-0.239,0.379-0.41,0.505
		c-0.171,0.126-0.368,0.218-0.592,0.272c-0.224,0.055-0.457,0.083-0.699,0.083h-0.377c-0.145,0-0.262-0.118-0.262-0.262v-3.006
		h0.671c0.232,0,0.457,0.026,0.675,0.078c0.218,0.053,0.413,0.141,0.584,0.265c0.171,0.124,0.308,0.289,0.41,0.497
		c0.103,0.208,0.154,0.47,0.154,0.786C73.934,32.977,73.883,33.238,73.78,33.449 M77.218,34.063v-0.898h1.622v-1.082h-1.622v-1.058
		h2.456v-1.137h-3.758v4.716c0,0.483,0.391,0.874,0.874,0.874h3.027v-1.153h-2.335C77.336,34.325,77.218,34.207,77.218,34.063
		 M81.75,34.039v-4.151h-1.358v4.716c0,0.483,0.392,0.874,0.874,0.874h2.647v-1.176h-1.901C81.867,34.301,81.75,34.184,81.75,34.039
		 M89.756,32.434c0.121-0.224,0.182-0.499,0.182-0.825c0-0.321-0.057-0.591-0.17-0.809c-0.113-0.218-0.269-0.395-0.466-0.529
		s-0.429-0.232-0.695-0.292c-0.266-0.061-0.552-0.091-0.857-0.091h-1.179c-0.483,0-0.874,0.391-0.874,0.874v4.716h0.675
		c0.373,0,0.675-0.302,0.675-0.675v-1.17c0-0.145,0.117-0.262,0.262-0.262h0.409c0.289,0,0.569-0.032,0.837-0.095
		c0.269-0.063,0.505-0.163,0.71-0.3C89.471,32.838,89.634,32.658,89.756,32.434 M88.508,31.945
		c-0.053,0.087-0.125,0.157-0.217,0.209c-0.092,0.053-0.197,0.09-0.312,0.11c-0.116,0.021-0.237,0.032-0.363,0.032h-0.569V31.24
		c0-0.145,0.117-0.262,0.262-0.262h0.33c0.121,0,0.238,0.008,0.351,0.024c0.113,0.016,0.215,0.047,0.304,0.095
		c0.089,0.048,0.16,0.113,0.213,0.198c0.052,0.084,0.079,0.192,0.079,0.324C88.587,31.748,88.561,31.858,88.508,31.945
		 M92.362,29.888c-0.45,0-0.857,0.27-1.031,0.685l-2.057,4.904h0.841c0.378,0,0.715-0.234,0.848-0.588l0.011-0.031
		c0.108-0.288,0.383-0.479,0.691-0.479h1.651l0.435,1.097h1.5l-2.321-5.589H92.362z M91.54,33.299l0.554-1.495
		c0.054-0.145,0.258-0.144,0.311,0.001l0.541,1.494H91.54z M98.762,34.227l-0.006,0.003c-0.2,0.106-0.434,0.158-0.702,0.158
		c-0.232,0-0.445-0.042-0.64-0.127c-0.195-0.084-0.362-0.201-0.501-0.351c-0.14-0.15-0.249-0.33-0.327-0.541
		c-0.079-0.211-0.119-0.443-0.119-0.695c0-0.247,0.04-0.475,0.119-0.683c0.079-0.208,0.189-0.388,0.331-0.541
		c0.142-0.153,0.312-0.272,0.509-0.359c0.198-0.087,0.415-0.13,0.651-0.13c0.216,0,0.426,0.042,0.632,0.126
		c0.012,0.005,0.024,0.01,0.035,0.015c0.341,0.152,0.736,0.098,1-0.166l0.378-0.378c-0.237-0.269-0.546-0.473-0.928-0.612
		c-0.381-0.14-0.77-0.209-1.164-0.209c-0.427,0-0.824,0.068-1.192,0.205c-0.368,0.137-0.689,0.333-0.963,0.588
		c-0.274,0.255-0.488,0.564-0.644,0.927c-0.155,0.364-0.233,0.769-0.233,1.216c0,0.437,0.076,0.837,0.229,1.2
		c0.153,0.364,0.363,0.675,0.632,0.936c0.268,0.26,0.585,0.462,0.951,0.604c0.366,0.142,0.764,0.213,1.196,0.213
		c0.474,0,0.892-0.083,1.255-0.249c0.363-0.166,0.668-0.391,0.916-0.675l-0.354-0.333C99.537,34.101,99.11,34.043,98.762,34.227
		 M100.997,28.671l-0.56,0.775h0.62c0.23,0,0.45-0.09,0.614-0.252l0.897-0.885h-0.864C101.425,28.309,101.162,28.444,100.997,28.671
		 M100.437,35.477h0.484c0.483,0,0.874-0.391,0.874-0.874v-4.716h-1.358V35.477z M102.632,30.762v4.716h0.46
		c0.483,0,0.874-0.391,0.874-0.874v-1.035c0-0.145,0.117-0.262,0.262-0.262h1.202v-1.114h-1.464v-0.89
		c0-0.145,0.117-0.262,0.262-0.262h2.083v-1.153h-2.806C103.023,29.888,102.632,30.279,102.632,30.762 M106.864,30.762v4.716h0.484
		c0.483,0,0.874-0.391,0.874-0.874v-4.716h-0.484C107.255,29.888,106.864,30.279,106.864,30.762 M112.562,34.227l-0.006,0.003
		c-0.2,0.106-0.434,0.158-0.702,0.158c-0.231,0-0.445-0.042-0.64-0.127c-0.195-0.084-0.362-0.201-0.501-0.351
		c-0.14-0.15-0.249-0.33-0.327-0.541c-0.079-0.211-0.119-0.443-0.119-0.695c0-0.247,0.04-0.475,0.119-0.683
		c0.079-0.208,0.19-0.388,0.331-0.541c0.142-0.153,0.312-0.272,0.509-0.359c0.197-0.087,0.415-0.13,0.651-0.13
		c0.216,0,0.426,0.042,0.632,0.126c0.012,0.005,0.024,0.01,0.035,0.015c0.341,0.152,0.736,0.098,1-0.166l0.378-0.378
		c-0.237-0.269-0.546-0.473-0.927-0.612c-0.382-0.14-0.77-0.209-1.165-0.209c-0.427,0-0.824,0.068-1.192,0.205
		c-0.369,0.137-0.69,0.333-0.964,0.588c-0.274,0.255-0.488,0.564-0.644,0.927c-0.155,0.364-0.233,0.769-0.233,1.216
		c0,0.437,0.076,0.837,0.229,1.2c0.152,0.364,0.363,0.675,0.631,0.936c0.268,0.26,0.586,0.462,0.951,0.604
		c0.366,0.142,0.764,0.213,1.196,0.213c0.474,0,0.892-0.083,1.256-0.249c0.363-0.166,0.668-0.391,0.916-0.675l-0.354-0.333
		C113.337,34.101,112.91,34.043,112.562,34.227 M119.74,31.447c-0.153-0.361-0.364-0.667-0.635-0.92
		c-0.271-0.253-0.593-0.447-0.967-0.584c-0.374-0.137-0.779-0.205-1.216-0.205c-0.437,0-0.841,0.068-1.212,0.205
		c-0.371,0.137-0.692,0.331-0.963,0.584c-0.271,0.252-0.483,0.559-0.636,0.92c-0.153,0.361-0.229,0.765-0.229,1.212
		c0,0.443,0.076,0.846,0.229,1.212c0.153,0.366,0.364,0.679,0.636,0.94c0.271,0.26,0.592,0.462,0.963,0.604
		c0.371,0.142,0.775,0.213,1.212,0.213c0.437,0,0.842-0.071,1.216-0.213c0.374-0.142,0.696-0.344,0.967-0.604
		c0.271-0.261,0.483-0.574,0.635-0.94c0.153-0.366,0.229-0.77,0.229-1.212C119.969,32.212,119.893,31.808,119.74,31.447
		 M118.406,33.358c-0.079,0.213-0.189,0.396-0.331,0.549c-0.142,0.153-0.311,0.272-0.505,0.359c-0.195,0.087-0.411,0.13-0.647,0.13
		s-0.453-0.043-0.647-0.13c-0.195-0.087-0.362-0.207-0.501-0.359c-0.14-0.153-0.249-0.336-0.327-0.549
		c-0.079-0.213-0.119-0.446-0.119-0.699c0-0.242,0.038-0.468,0.115-0.679c0.076-0.21,0.185-0.391,0.327-0.541
		c0.142-0.15,0.31-0.269,0.505-0.355c0.194-0.087,0.411-0.13,0.647-0.13s0.454,0.044,0.651,0.13
		c0.198,0.087,0.366,0.205,0.506,0.355c0.14,0.15,0.249,0.33,0.327,0.541c0.079,0.211,0.119,0.437,0.119,0.679
		C118.525,32.912,118.486,33.144,118.406,33.358"/>
	<path id="XMLID_14_" style="fill:#FFFFFF;" d="M44.316,14.803c0,0.742-0.608,1.348-1.35,1.345c-0.653,0-1.202,0.119-1.647,0.355
		c-0.445,0.237-0.801,0.523-1.068,0.858c-0.267,0.336-0.46,0.701-0.579,1.095c-0.119,0.395-0.178,0.74-0.178,1.036v6.019
		c0,0.907-0.735,1.642-1.642,1.642h-3.225V11.874h4.689v0.346c0,0.719,0.849,1.08,1.382,0.598c0.096-0.087,0.191-0.164,0.28-0.226
		c0.692-0.478,1.494-0.718,2.404-0.718c0.198,0,0.39,0.01,0.579,0.03c0.188,0.02,0.237,0.05,0.356,0.089V14.803z"/>
	<path id="XMLID_13_" style="fill:#FFFFFF;" d="M12.431,27.153H9.274L0.568,4.154h6.237l4.565,12.894
		c0.276,0.778,1.377,0.777,1.651-0.002l3.715-10.557c0.492-1.399,1.814-2.335,3.297-2.335h3.665l-8.006,20.761
		C15.172,26.264,13.876,27.153,12.431,27.153"/>
	<g id="XMLID_4_">
		<defs>
			<path id="XMLID_5_" d="M65.376,25.318l1.897,4.925c0.269,0.699,1.26,0.692,1.52-0.01l2.625-7.04
				c-0.262,0.709-1.267,0.708-1.526-0.003l-1.88-5.126l-0.034-0.02L65.376,25.318z"/>
		</defs>
		<clipPath id="XMLID_91_">
			<use xlink:href="#XMLID_5_"  style="overflow:visible;"/>
		</clipPath>
		
			<linearGradient id="XMLID_92_" gradientUnits="userSpaceOnUse" x1="-78.8238" y1="58.3905" x2="-78.3878" y2="58.3905" gradientTransform="matrix(11.8817 0 0 11.8817 1002.6494 -669.2862)">
			<stop  offset="0" style="stop-color:#0083CA"/>
			<stop  offset="0.1316" style="stop-color:#0989CD"/>
			<stop  offset="0.3511" style="stop-color:#2398D5"/>
			<stop  offset="0.6314" style="stop-color:#4DB1E3"/>
			<stop  offset="0.9587" style="stop-color:#86D3F5"/>
			<stop  offset="1" style="stop-color:#8ED8F8"/>
		</linearGradient>
		
			<rect id="XMLID_6_" x="65.376" y="18.042" style="clip-path:url(#XMLID_91_);fill:url(#XMLID_92_);" width="6.042" height="12.899"/>
	</g>
</g>
</svg>
